<?xml version="1.0" encoding="UTF-8"?>
<svg version="1.1" xmlns="http://www.w3.org/2000/svg" width="466" height="541">
<path d="M0 0 C153.78 0 307.56 0 466 0 C466 178.53 466 357.06 466 541 C312.22 541 158.44 541 0 541 C0 362.47 0 183.94 0 0 Z " fill="#FEF8EB" transform="translate(0,0)"/>
<path d="M0 0 C29.29589753 10.09354453 54.38672061 31.10063008 76.0625 52.625 C76.91400635 53.46724121 77.7655127 54.30948242 78.64282227 55.17724609 C79.42842529 55.96695801 80.21402832 56.75666992 81.0234375 57.5703125 C81.73032715 58.27945801 82.4372168 58.98860352 83.16552734 59.71923828 C84.6875 61.5 84.6875 61.5 84.6875 63.5 C85.62851563 63.29503906 86.56953125 63.09007813 87.5390625 62.87890625 C88.78429687 62.60949219 90.02953125 62.34007812 91.3125 62.0625 C92.54226562 61.79566406 93.77203125 61.52882812 95.0390625 61.25390625 C103.1920986 59.56917823 110.8733755 59.31656758 119.1875 59.3125 C120.47398437 59.30025391 121.76046875 59.28800781 123.0859375 59.27539062 C134.5408696 59.25810451 145.64042791 60.40681981 156.6875 63.5 C156.94474854 62.91822998 157.20199707 62.33645996 157.46704102 61.73706055 C158.7959773 59.30116474 160.25864431 57.67021622 162.21484375 55.70703125 C162.91923584 54.99861084 163.62362793 54.29019043 164.34936523 53.56030273 C165.10032471 52.81852783 165.85128418 52.07675293 166.625 51.3125 C167.39336182 50.54945557 168.16172363 49.78641113 168.95336914 49.00024414 C174.60726766 43.44003372 180.41240702 38.35166933 186.6875 33.5 C187.43257813 32.87609375 188.17765625 32.2521875 188.9453125 31.609375 C207.27390188 16.32519538 232.61109108 -2.16158108 257.42578125 -1.828125 C262.28374469 -1.3394197 265.25881165 0.0398558 268.6875 3.5 C276.48328562 13.15192505 279.30757095 26.04644141 281.875 37.9375 C282.02984863 38.65091553 282.18469727 39.36433105 282.34423828 40.09936523 C285.24796332 54.39523459 286.09971924 68.51753245 286.0625 83.0625 C286.0612915 83.9415097 286.06008301 84.82051941 286.05883789 85.72616577 C286.00695188 99.67290356 285.22973201 112.9488485 281.6875 126.5 C281.40841797 127.58555176 281.12933594 128.67110352 280.84179688 129.78955078 C277.61828325 142.03856035 274.19921671 154.07948166 268.03808594 165.21435547 C265.58737989 169.79935038 265.40376858 172.48861333 266.6875 177.5 C272.84075582 196.80206266 282.7173255 214.48505593 299.25390625 226.734375 C300.6875 228.5 300.6875 228.5 301.1484375 231.37109375 C300.57939431 235.2338361 299.28480889 236.87675473 296.75 239.8125 C296.01910156 240.67488281 295.28820312 241.53726563 294.53515625 242.42578125 C293.60606247 243.46880196 292.67520123 244.51229877 291.6875 245.5 C291.5225 246.716875 291.3575 247.93375 291.1875 249.1875 C289.60527305 256.52856767 284.96390766 262.47798488 280.6875 268.5 C280.10669678 269.32056885 280.10669678 269.32056885 279.51416016 270.15771484 C269.98195507 283.44294765 258.81895669 295.71656356 245.6875 305.5 C244.91535156 306.0878125 244.14320313 306.675625 243.34765625 307.28125 C235.89483516 312.73755828 227.7760587 317.07437421 219.6875 321.5 C222.64705185 324.48897085 225.64878239 327.42364122 228.69140625 330.328125 C253.43521856 354.17931513 275.67747813 389.2019861 277.1875 424.6875 C277.04222533 428.14815018 276.73114822 429.42517448 274.9375 432.5 C274.195 433.16 273.4525 433.82 272.6875 434.5 C272.006875 435.11875 271.32625 435.7375 270.625 436.375 C269.985625 436.74625 269.34625 437.1175 268.6875 437.5 C267.6975 437.17 266.7075 436.84 265.6875 436.5 C265.44966797 434.66501953 265.44966797 434.66501953 265.20703125 432.79296875 C262.62806059 413.78662118 258.1731923 396.74327759 249.6875 379.5 C249.19378906 378.48421875 248.70007813 377.4684375 248.19140625 376.421875 C238.98644419 358.58563123 222.26760558 335.70834174 202.6875 328.5 C199.7018079 329.06184977 199.7018079 329.06184977 196.6875 330.5 C151.50411479 346.85619358 98.07002617 349.9483054 52.38671875 333.296875 C49.11104205 332.3298156 46.57709672 332.47757556 43.1875 332.8125 C42.1046875 332.91175781 41.021875 333.01101563 39.90625 333.11328125 C37.8852238 333.35609872 35.86906613 333.65076413 33.8671875 334.01953125 C16.53478011 336.63855595 0.87211202 333.85293629 -14.078125 324.63671875 C-16.4888756 323.19770965 -16.4888756 323.19770965 -20.3125 323.5 C-21.3025 323.83 -22.2925 324.16 -23.3125 324.5 C-23.15007812 323.94441406 -22.98765625 323.38882812 -22.8203125 322.81640625 C-19.79411243 309.01227822 -21.00291865 283.61604292 -28.23046875 271.20703125 C-30.20526891 268.33939233 -30.20526891 268.33939233 -33.3125 266.5 C-36.75365233 266.58823468 -38.01638201 267.21234252 -40.5 269.625 C-44.35836857 275.74517084 -44.60919677 281.74492637 -44.96875 288.828125 C-45.3125 291.5 -45.3125 291.5 -47.3125 294.5 C-50.25 294.125 -50.25 294.125 -53.3125 293.5 C-54.79268624 290.53962751 -54.39129866 287.73429555 -54.4375 284.4375 C-54.76502293 276.92147517 -56.88244098 272.64993693 -62.3125 267.5 C-62.9209375 266.90445312 -63.529375 266.30890625 -64.15625 265.6953125 C-68.44870615 261.76056103 -71.91359614 259.71418785 -77.8125 259.1875 C-82.52671287 259.60841186 -84.8876747 261.0751747 -88.1875 264.375 C-89.51940996 266.43823865 -89.51940996 266.43823865 -89.15234375 268.7890625 C-88.08092793 272.2474931 -86.35279751 274.25827852 -84 277 C-83.22011719 277.9178125 -82.44023438 278.835625 -81.63671875 279.78125 C-80.11338458 281.56316695 -78.5540451 283.31505602 -76.95703125 285.03125 C-75.3125 287.5 -75.3125 287.5 -75.375 290.0234375 C-76.39424108 292.71593268 -77.63958389 294.78452602 -79.3125 297.125 C-81.12484113 299.67796131 -82.31479375 301.50688125 -83.3125 304.5 C-83.9725 304.5 -84.6325 304.5 -85.3125 304.5 C-84.97992188 303.90574219 -84.64734375 303.31148438 -84.3046875 302.69921875 C-82.99741556 299.76014233 -82.32964221 297.73559197 -82.3125 294.5 C-85.66998253 289.18398599 -90.07517258 284.99155161 -95.3125 281.5 C-98.85274142 281.42232871 -98.85274142 281.42232871 -102.3125 282.5 C-105.643928 286.92637287 -106.06314422 290.57774378 -105.91015625 295.9921875 C-103.29815783 311.32274033 -90.6061191 327.5729412 -78.3125 336.5 C-70.39975047 341.68745575 -62.70072408 345.66067447 -53.3125 347.5 C-54.70445915 350.2839183 -56.46825779 350.47898997 -59.3125 351.5 C-38.22942822 375.96677466 -9.18596372 394.37944207 23.6875 397.5 C26.0207096 397.52402894 28.35433973 397.52841852 30.6875 397.5 C31.13480469 396.55898438 31.58210937 395.61796875 32.04296875 394.6484375 C32.65320537 393.39041125 33.26390747 392.13261071 33.875 390.875 C34.31295898 389.94880859 34.31295898 389.94880859 34.75976562 389.00390625 C36.91076701 384.60938729 39.43174223 381.15499576 42.6875 377.5 C44.0075 378.16 45.3275 378.82 46.6875 379.5 C45.48371666 386.48088819 44.07388803 393.3939561 42.5300293 400.30712891 C38.82463231 416.95880023 36.31957655 433.5309062 34.6875 450.5 C29.79912854 449.10332244 25.34321105 447.15571105 21.6875 443.5 C21.15250717 436.58299219 22.02819939 429.81546799 23.125 423 C23.32706055 421.66195312 23.32706055 421.66195312 23.53320312 420.296875 C24.54429945 413.7864011 24.54429945 413.7864011 25.6875 411.5 C24.92050781 411.42523438 24.15351563 411.35046875 23.36328125 411.2734375 C-8.89745617 407.45160798 -40.16508417 392.58940084 -61.3125 367.5 C-63.07258665 365.0891909 -64.72271683 362.61048018 -66.375 360.125 C-70.04933724 354.63593004 -73.57077333 351.62223816 -79.578125 348.84765625 C-84.38697927 346.47757808 -88.29632866 343.0106877 -92.3125 339.5 C-92.91578125 338.98050781 -93.5190625 338.46101563 -94.140625 337.92578125 C-106.22232089 326.71916147 -116.94363893 309.69622227 -117.8125 293 C-117.60645541 286.38784192 -115.24394004 280.76909282 -110.8203125 275.8359375 C-108.51192943 273.79068617 -106.54218288 272.56264078 -103.5625 271.75 C-101.15213534 270.7462895 -101.15213534 270.7462895 -100.69921875 268.59375 C-100.39422839 267.00249597 -100.10301621 265.40855153 -99.82421875 263.8125 C-98.48968468 257.7816285 -94.14629032 253.98032903 -89.3125 250.5 C-82.71290577 247.27694235 -74.59574472 247.60876186 -67.625 249.5625 C-60.3282997 252.33472305 -55.18441119 257.88548505 -51.3125 264.5 C-48.66676499 262.27122275 -48.66676499 262.27122275 -46.3125 259.5 C-46.57440686 257.53876646 -46.57440686 257.53876646 -47.3125 255.5 C-47.47298828 254.45392578 -47.47298828 254.45392578 -47.63671875 253.38671875 C-48.52552058 248.00612271 -50.12910687 245.06303208 -53.84765625 241.1171875 C-56.67061147 238.00064494 -58.06482498 234.83668884 -58.82421875 230.73828125 C-58.04489112 225.80650566 -54.95072962 223.8650806 -51.25 220.75 C-38.94249766 209.79312895 -27.56793711 193.08478593 -24.3125 176.5 C-24.6287241 170.7945099 -26.48167001 166.58745317 -28.9375 161.5625 C-34.02372537 150.57303115 -37.41264969 139.23956384 -40.3125 127.5 C-40.5398584 126.58637695 -40.7672168 125.67275391 -41.00146484 124.73144531 C-47.55892957 96.9390852 -46.39194219 65.26852904 -40.3125 37.5 C-40.02366943 36.15010986 -40.02366943 36.15010986 -39.72900391 34.77294922 C-36.73830794 21.20363444 -33.29184893 7.83697932 -21.3125 -0.5 C-15.20821748 -3.55214126 -6.29222028 -1.78541751 0 0 Z " fill="#F78F33" transform="translate(150.3125,31.5)"/>
<path d="M0 0 C29.29589753 10.09354453 54.38672061 31.10063008 76.0625 52.625 C76.91400635 53.46724121 77.7655127 54.30948242 78.64282227 55.17724609 C79.42842529 55.96695801 80.21402832 56.75666992 81.0234375 57.5703125 C81.73032715 58.27945801 82.4372168 58.98860352 83.16552734 59.71923828 C84.6875 61.5 84.6875 61.5 84.6875 63.5 C85.62851563 63.29503906 86.56953125 63.09007813 87.5390625 62.87890625 C88.78429687 62.60949219 90.02953125 62.34007812 91.3125 62.0625 C92.54226562 61.79566406 93.77203125 61.52882812 95.0390625 61.25390625 C103.1920986 59.56917823 110.8733755 59.31656758 119.1875 59.3125 C120.47398437 59.30025391 121.76046875 59.28800781 123.0859375 59.27539062 C134.5408696 59.25810451 145.64042791 60.40681981 156.6875 63.5 C156.94474854 62.91822998 157.20199707 62.33645996 157.46704102 61.73706055 C158.7959773 59.30116474 160.25864431 57.67021622 162.21484375 55.70703125 C162.91923584 54.99861084 163.62362793 54.29019043 164.34936523 53.56030273 C165.10032471 52.81852783 165.85128418 52.07675293 166.625 51.3125 C167.39336182 50.54945557 168.16172363 49.78641113 168.95336914 49.00024414 C174.60726766 43.44003372 180.41240702 38.35166933 186.6875 33.5 C187.43257813 32.87609375 188.17765625 32.2521875 188.9453125 31.609375 C207.27390188 16.32519538 232.61109108 -2.16158108 257.42578125 -1.828125 C262.28374469 -1.3394197 265.25881165 0.0398558 268.6875 3.5 C276.48328562 13.15192505 279.30757095 26.04644141 281.875 37.9375 C282.02984863 38.65091553 282.18469727 39.36433105 282.34423828 40.09936523 C285.24796332 54.39523459 286.09971924 68.51753245 286.0625 83.0625 C286.0612915 83.9415097 286.06008301 84.82051941 286.05883789 85.72616577 C286.00695188 99.67290356 285.22973201 112.9488485 281.6875 126.5 C281.40841797 127.58555176 281.12933594 128.67110352 280.84179688 129.78955078 C277.61828325 142.03856035 274.19921671 154.07948166 268.03808594 165.21435547 C265.58737989 169.79935038 265.40376858 172.48861333 266.6875 177.5 C272.84075582 196.80206266 282.7173255 214.48505593 299.25390625 226.734375 C300.6875 228.5 300.6875 228.5 301.1484375 231.37109375 C300.57939431 235.2338361 299.28480889 236.87675473 296.75 239.8125 C296.01910156 240.67488281 295.28820312 241.53726563 294.53515625 242.42578125 C293.60606247 243.46880196 292.67520123 244.51229877 291.6875 245.5 C291.5225 246.716875 291.3575 247.93375 291.1875 249.1875 C289.60527305 256.52856767 284.96390766 262.47798488 280.6875 268.5 C280.10669678 269.32056885 280.10669678 269.32056885 279.51416016 270.15771484 C269.98195507 283.44294765 258.81895669 295.71656356 245.6875 305.5 C244.91535156 306.0878125 244.14320313 306.675625 243.34765625 307.28125 C235.89483516 312.73755828 227.7760587 317.07437421 219.6875 321.5 C222.64705185 324.48897085 225.64878239 327.42364122 228.69140625 330.328125 C253.43521856 354.17931513 275.67747813 389.2019861 277.1875 424.6875 C277.04222533 428.14815018 276.73114822 429.42517448 274.9375 432.5 C274.195 433.16 273.4525 433.82 272.6875 434.5 C272.006875 435.11875 271.32625 435.7375 270.625 436.375 C269.985625 436.74625 269.34625 437.1175 268.6875 437.5 C267.6975 437.17 266.7075 436.84 265.6875 436.5 C265.44966797 434.66501953 265.44966797 434.66501953 265.20703125 432.79296875 C262.62806059 413.78662118 258.1731923 396.74327759 249.6875 379.5 C249.19378906 378.48421875 248.70007813 377.4684375 248.19140625 376.421875 C238.98644419 358.58563123 222.26760558 335.70834174 202.6875 328.5 C199.7018079 329.06184977 199.7018079 329.06184977 196.6875 330.5 C151.50411479 346.85619358 98.07002617 349.9483054 52.38671875 333.296875 C49.11104205 332.3298156 46.57709672 332.47757556 43.1875 332.8125 C42.1046875 332.91175781 41.021875 333.01101563 39.90625 333.11328125 C37.8852238 333.35609872 35.86906613 333.65076413 33.8671875 334.01953125 C16.53478011 336.63855595 0.87211202 333.85293629 -14.078125 324.63671875 C-16.4888756 323.19770965 -16.4888756 323.19770965 -20.3125 323.5 C-21.3025 323.83 -22.2925 324.16 -23.3125 324.5 C-23.15007812 323.94441406 -22.98765625 323.38882812 -22.8203125 322.81640625 C-19.79411243 309.01227822 -21.00291865 283.61604292 -28.23046875 271.20703125 C-30.20526891 268.33939233 -30.20526891 268.33939233 -33.3125 266.5 C-36.75365233 266.58823468 -38.01638201 267.21234252 -40.5 269.625 C-44.35836857 275.74517084 -44.60919677 281.74492637 -44.96875 288.828125 C-45.3125 291.5 -45.3125 291.5 -47.3125 294.5 C-50.25 294.125 -50.25 294.125 -53.3125 293.5 C-54.79268624 290.53962751 -54.39129866 287.73429555 -54.4375 284.4375 C-54.76502293 276.92147517 -56.88244098 272.64993693 -62.3125 267.5 C-62.9209375 266.90445312 -63.529375 266.30890625 -64.15625 265.6953125 C-68.44870615 261.76056103 -71.91359614 259.71418785 -77.8125 259.1875 C-82.52671287 259.60841186 -84.8876747 261.0751747 -88.1875 264.375 C-89.51940996 266.43823865 -89.51940996 266.43823865 -89.15234375 268.7890625 C-88.08092793 272.2474931 -86.35279751 274.25827852 -84 277 C-83.22011719 277.9178125 -82.44023438 278.835625 -81.63671875 279.78125 C-80.11338458 281.56316695 -78.5540451 283.31505602 -76.95703125 285.03125 C-75.3125 287.5 -75.3125 287.5 -75.375 290.0234375 C-76.39424108 292.71593268 -77.63958389 294.78452602 -79.3125 297.125 C-81.12484113 299.67796131 -82.31479375 301.50688125 -83.3125 304.5 C-83.9725 304.5 -84.6325 304.5 -85.3125 304.5 C-84.97992188 303.90574219 -84.64734375 303.31148438 -84.3046875 302.69921875 C-82.99741556 299.76014233 -82.32964221 297.73559197 -82.3125 294.5 C-85.66998253 289.18398599 -90.07517258 284.99155161 -95.3125 281.5 C-98.85274142 281.42232871 -98.85274142 281.42232871 -102.3125 282.5 C-105.643928 286.92637287 -106.06314422 290.57774378 -105.91015625 295.9921875 C-103.29815783 311.32274033 -90.6061191 327.5729412 -78.3125 336.5 C-70.39975047 341.68745575 -62.70072408 345.66067447 -53.3125 347.5 C-54.70445915 350.2839183 -56.46825779 350.47898997 -59.3125 351.5 C-38.22942822 375.96677466 -9.18596372 394.37944207 23.6875 397.5 C26.0207096 397.52402894 28.35433973 397.52841852 30.6875 397.5 C31.13480469 396.55898438 31.58210937 395.61796875 32.04296875 394.6484375 C32.65320537 393.39041125 33.26390747 392.13261071 33.875 390.875 C34.31295898 389.94880859 34.31295898 389.94880859 34.75976562 389.00390625 C36.91076701 384.60938729 39.43174223 381.15499576 42.6875 377.5 C44.0075 378.16 45.3275 378.82 46.6875 379.5 C45.48371666 386.48088819 44.07388803 393.3939561 42.5300293 400.30712891 C38.82463231 416.95880023 36.31957655 433.5309062 34.6875 450.5 C29.79912854 449.10332244 25.34321105 447.15571105 21.6875 443.5 C21.15250717 436.58299219 22.02819939 429.81546799 23.125 423 C23.32706055 421.66195312 23.32706055 421.66195312 23.53320312 420.296875 C24.54429945 413.7864011 24.54429945 413.7864011 25.6875 411.5 C24.92050781 411.42523438 24.15351563 411.35046875 23.36328125 411.2734375 C-8.89745617 407.45160798 -40.16508417 392.58940084 -61.3125 367.5 C-63.07258665 365.0891909 -64.72271683 362.61048018 -66.375 360.125 C-70.04933724 354.63593004 -73.57077333 351.62223816 -79.578125 348.84765625 C-84.38697927 346.47757808 -88.29632866 343.0106877 -92.3125 339.5 C-92.91578125 338.98050781 -93.5190625 338.46101563 -94.140625 337.92578125 C-106.22232089 326.71916147 -116.94363893 309.69622227 -117.8125 293 C-117.60645541 286.38784192 -115.24394004 280.76909282 -110.8203125 275.8359375 C-108.51192943 273.79068617 -106.54218288 272.56264078 -103.5625 271.75 C-101.15213534 270.7462895 -101.15213534 270.7462895 -100.69921875 268.59375 C-100.39422839 267.00249597 -100.10301621 265.40855153 -99.82421875 263.8125 C-98.48968468 257.7816285 -94.14629032 253.98032903 -89.3125 250.5 C-82.71290577 247.27694235 -74.59574472 247.60876186 -67.625 249.5625 C-60.3282997 252.33472305 -55.18441119 257.88548505 -51.3125 264.5 C-48.66676499 262.27122275 -48.66676499 262.27122275 -46.3125 259.5 C-46.57440686 257.53876646 -46.57440686 257.53876646 -47.3125 255.5 C-47.47298828 254.45392578 -47.47298828 254.45392578 -47.63671875 253.38671875 C-48.52552058 248.00612271 -50.12910687 245.06303208 -53.84765625 241.1171875 C-56.67061147 238.00064494 -58.06482498 234.83668884 -58.82421875 230.73828125 C-58.04489112 225.80650566 -54.95072962 223.8650806 -51.25 220.75 C-38.94249766 209.79312895 -27.56793711 193.08478593 -24.3125 176.5 C-24.6287241 170.7945099 -26.48167001 166.58745317 -28.9375 161.5625 C-34.02372537 150.57303115 -37.41264969 139.23956384 -40.3125 127.5 C-40.5398584 126.58637695 -40.7672168 125.67275391 -41.00146484 124.73144531 C-47.55892957 96.9390852 -46.39194219 65.26852904 -40.3125 37.5 C-40.02366943 36.15010986 -40.02366943 36.15010986 -39.72900391 34.77294922 C-36.73830794 21.20363444 -33.29184893 7.83697932 -21.3125 -0.5 C-15.20821748 -3.55214126 -6.29222028 -1.78541751 0 0 Z M-21.3125 16.5 C-22.64467044 19.20994607 -23.55410328 21.99140197 -24.4375 24.875 C-24.81696777 26.06875244 -24.81696777 26.06875244 -25.20410156 27.28662109 C-27.46787295 34.60809592 -29.09499662 41.92890284 -30.3125 49.5 C-30.51746094 50.67949219 -30.72242187 51.85898438 -30.93359375 53.07421875 C-36.05018442 86.84371715 -31.11156171 122.00815056 -18.3125 153.5 C-17.3225 153.5 -16.3325 153.5 -15.3125 153.5 C-14.83941406 152.43523437 -14.36632812 151.37046875 -13.87890625 150.2734375 C-9.43319778 140.44320359 -4.53587166 131.31601064 1.6875 122.5 C2.26322754 121.68088135 2.26322754 121.68088135 2.85058594 120.84521484 C10.01607501 110.78906844 18.5190774 100.6228081 28.6875 93.5 C28.18051941 87.65672376 26.99544368 83.00743187 24.5625 77.6875 C24.09118652 76.64384277 24.09118652 76.64384277 23.61035156 75.57910156 C16.81680232 60.88576079 6.82156409 49.6399571 -5.51171875 39.33984375 C-7.3125 37.5 -7.3125 37.5 -7.3125 34.5 C3.58961999 35.64759158 12.0242253 45.28364012 19.6875 52.5 C20.32558594 53.07363281 20.96367187 53.64726563 21.62109375 54.23828125 C28.82334276 60.95931095 33.33700619 69.43424841 37.5 78.25 C37.79003906 78.86359375 38.08007812 79.4771875 38.37890625 80.109375 C40.2393072 84.18119595 41.55378383 88.18634823 42.6875 92.5 C41.68783203 93.26570313 41.68783203 93.26570313 40.66796875 94.046875 C10.20567812 118.07587069 -4.49424257 153.1650398 -17.0625 188.8125 C-22.85891018 205.16706436 -29.21371712 218.6547824 -43.3125 229.5 C-41.90332615 233.92543921 -39.76624805 236.36709942 -36.4375 239.5625 C-35.57382813 240.39910156 -34.71015625 241.23570312 -33.8203125 242.09765625 C-32.99273437 242.89042969 -32.16515625 243.68320312 -31.3125 244.5 C-29.97579542 245.82995354 -28.64119031 247.16203976 -27.3125 248.5 C-30.2590385 250.30066242 -33.20051935 252.00163895 -36.3125 253.5 C-35.51549018 255.66683338 -35.51549018 255.66683338 -33.45703125 256.17578125 C-32.30267578 256.49095703 -32.30267578 256.49095703 -31.125 256.8125 C-24.42160534 258.97968306 -20.89291826 262.01600605 -17.5625 268.125 C-15.77462508 271.8557359 -15.09275879 274.89851347 -14.75 279 C-13.7389689 285.32337874 -10.06703788 288.26983029 -5.09375 291.90234375 C-3.83756594 292.77435827 -2.57687686 293.63990764 -1.3125 294.5 C-0.27996094 295.21373779 -0.27996094 295.21373779 0.7734375 295.94189453 C35.36884323 319.57234182 76.33846543 331.91467661 118.14697266 331.81567383 C120.91999928 331.8125199 123.69194837 331.83604859 126.46484375 331.86132812 C138.47695495 331.90349669 149.89877837 330.77141944 161.6875 328.5 C162.45588699 328.35499557 163.22427399 328.20999115 164.01594543 328.06059265 C208.82175213 319.54594244 249.4041618 295.19721814 275.6875 257.5 C276.3475 256.18 277.0075 254.86 277.6875 253.5 C274.7175 252.18 271.7475 250.86 268.6875 249.5 C270.53647091 245.80205818 271.40094699 244.65322813 274.4375 242.1875 C278.31675346 238.91703449 281.48142422 235.42744284 284.6875 231.5 C284.006875 230.819375 283.32625 230.13875 282.625 229.4375 C282.16609375 228.97214844 281.7071875 228.50679687 281.234375 228.02734375 C280.2078643 227.01379405 279.15530466 226.02593279 278.078125 225.06640625 C265.73360677 213.71284705 261.14299967 197.82903659 255.6875 182.5 C247.88471267 160.70636702 239.59182788 139.20628302 225.6875 120.5 C225.25469727 119.90928711 224.82189453 119.31857422 224.37597656 118.70996094 C217.39727311 109.25379227 209.55017116 99.07511411 199.6875 92.5 C203.24188337 71.32823819 219.11401321 52.41423912 235.9765625 40.0390625 C243.96447368 34.5 243.96447368 34.5 248.6875 34.5 C249.0175 35.82 249.3475 37.14 249.6875 38.5 C249.12546875 38.74621094 248.5634375 38.99242188 247.984375 39.24609375 C230.96538987 48.53707033 219.85052403 68.73598955 213.6875 86.5 C212.70942388 90.09919348 212.70942388 90.09919348 212.6875 93.5 C213.98555553 95.54858721 213.98555553 95.54858721 216.125 96.9375 C216.87007813 97.52402344 217.61515625 98.11054688 218.3828125 98.71484375 C219.14335937 99.30394531 219.90390625 99.89304687 220.6875 100.5 C236.45086804 114.31687927 246.6945723 133.90863576 255.6875 152.5 C256.0175 153.16 256.3475 153.82 256.6875 154.5 C257.3475 154.5 258.0075 154.5 258.6875 154.5 C263.02753244 145.04951516 266.44669972 135.59046183 269 125.5 C269.24186035 124.56542969 269.4837207 123.63085938 269.73291016 122.66796875 C273.18562998 108.43857796 274.10087943 94.02696409 274.0625 79.4375 C274.06218277 78.30770721 274.06218277 78.30770721 274.06185913 77.15509033 C274.00474405 56.6061134 272.7511628 29.44745444 259.6875 12.5 C255.6558871 10.48419355 252.04098725 11.09938275 247.86328125 12.3359375 C232.80349086 17.85600827 219.59912419 26.10790992 206.6875 35.5 C206.10194336 35.92571289 205.51638672 36.35142578 204.91308594 36.79003906 C192.0735164 46.21161648 180.83600278 57.17359558 169.6875 68.5 C172.61525974 71.68275817 176.05367133 73.67364765 179.7265625 75.90234375 C181.95275128 77.7161111 182.33687903 78.70107743 182.6875 81.5 C178.05743624 82.9635259 174.69601368 81.8115126 170.3125 80.1875 C169.03438342 79.73158646 167.75573845 79.27715146 166.4765625 78.82421875 C165.91662598 78.61885498 165.35668945 78.41349121 164.77978516 78.2019043 C150.92837747 73.55513684 136.89852334 73.11847187 122.4375 73.1875 C121.62290314 73.18965515 120.80830627 73.1918103 119.96902466 73.19403076 C101.92928693 73.27058189 86.17337146 75.65582889 68.98046875 81.1953125 C65.5729876 82.27764496 62.24090819 83.0307899 58.6875 83.5 C59.04667035 80.6823705 59.52965768 79.64620852 61.6484375 77.68359375 C62.44507813 77.10738281 63.24171875 76.53117187 64.0625 75.9375 C66.81002957 73.92831307 69.35033951 71.98040581 71.6875 69.5 C60.40252145 57.12918159 49.16441485 45.50383043 35.6875 35.5 C35.14722168 35.09894043 34.60694336 34.69788086 34.05029297 34.28466797 C6.63960481 13.49515408 6.63960481 13.49515408 -21.3125 16.5 Z " fill="#040201" transform="translate(150.3125,31.5)"/>
<path d="M0 0 C1.57007813 -0.01740234 1.57007813 -0.01740234 3.171875 -0.03515625 C19.37888957 0.02486973 30.45947564 5.22289242 42.171875 16.125 C51.0410565 24.25979067 57.55277525 28.23672537 69.85546875 27.89453125 C75.29564936 27.48905904 80.23192063 25.86640016 85.375 24.125 C102.05581729 18.50967537 117.03774186 16.01991399 134.625 16 C135.37743988 15.99791534 136.12987976 15.99583069 136.90512085 15.99368286 C156.26482638 15.99975944 156.26482638 15.99975944 163.625 18.375 C164.285 19.365 164.945 20.355 165.625 21.375 C160.59179794 27.15005724 155.58760189 32.55417294 149.625 37.375 C150.26567976 40.46259559 150.26567976 40.46259559 152.47265625 41.32421875 C153.20355469 41.56785156 153.93445313 41.81148438 154.6875 42.0625 C155.42097656 42.31386719 156.15445312 42.56523437 156.91015625 42.82421875 C157.47605469 43.00597656 158.04195313 43.18773437 158.625 43.375 C138.30946487 75.64084991 108.12949903 97.58159695 72.625 110.375 C71.84543945 110.65859375 71.06587891 110.9421875 70.26269531 111.234375 C57.31915848 115.85979398 44.19947608 118.36580449 30.625 120.375 C29.02132568 120.63869385 29.02132568 120.63869385 27.38525391 120.90771484 C23.04029083 121.44766156 18.7877349 121.57308382 14.4140625 121.61328125 C13.53707703 121.62312042 12.66009155 121.63295959 11.75653076 121.64309692 C-7.27936238 121.81253909 -25.76342272 121.86328158 -44.375 117.375 C-45.4067334 117.12830566 -46.4384668 116.88161133 -47.50146484 116.62744141 C-75.89905601 109.63217813 -102.16040372 98.3204738 -125.375 80.375 C-126.03419434 79.87709961 -126.69338867 79.37919922 -127.37255859 78.86621094 C-132.11622129 75.09786947 -132.11622129 75.09786947 -133.3203125 71.734375 C-133.37960938 70.87328125 -133.43890625 70.0121875 -133.5 69.125 C-134.40365331 62.06881351 -136.79840652 55.39419115 -142.125 50.4375 C-145.55092193 48.26335723 -148.61716126 47.155079 -152.51953125 46.1484375 C-153.43798828 45.76558594 -153.43798828 45.76558594 -154.375 45.375 C-154.87 43.89 -154.87 43.89 -155.375 42.375 C-152.735 41.385 -150.095 40.395 -147.375 39.375 C-147.02486235 36.25314409 -147.02486235 36.25314409 -149.38671875 34.32421875 C-150.26972656 33.57785156 -151.15273437 32.83148438 -152.0625 32.0625 C-155.91020707 28.70122181 -159.46629813 25.58760271 -162.375 21.375 C-161.88 19.89 -161.88 19.89 -161.375 18.375 C-152.97614537 14.81528204 -143.70892915 14.9003163 -134.75 15 C-134.0920343 15.00465271 -133.4340686 15.00930542 -132.75616455 15.01409912 C-113.86585758 15.17027409 -96.81187895 18.80170218 -79.06030273 25.21069336 C-69.55950636 28.60347268 -59.39712955 29.26794508 -50.0625 25.0625 C-44.51925556 21.90135249 -40.45374364 17.67070988 -36.09375 13.06640625 C-25.72603967 2.80296887 -14.20424809 -0.15628146 0 0 Z " fill="#FED9A4" transform="translate(269.375,241.625)"/>
<path d="M0 0 C6.76759037 3.70574852 12.37022366 9.78387667 16.0625 16.5 C16.6467784 19.45973964 16.75635936 22.36381996 16.8125 25.375 C16.84214844 26.15875 16.87179688 26.9425 16.90234375 27.75 C16.972446 29.66612807 17.01980658 31.58306537 17.0625 33.5 C19.0425 33.5 21.0225 33.5 23.0625 33.5 C24.83613927 29.95272146 24.72446067 25.6375779 25.04882812 21.70507812 C25.69492554 15.58144689 27.63127695 11.0096496 32 6.5 C34.0625 5.5 34.0625 5.5 36.5 5.4375 C40.15857916 6.95447185 42.1564473 9.1216859 44.0625 12.5 C47.11440777 20.99994149 48.19165514 29.66056918 48.625 38.625 C48.6660083 39.46232666 48.7070166 40.29965332 48.74926758 41.16235352 C49.63069619 60.1249306 49.63069619 60.1249306 47.0625 64.5 C49.0425 63.015 49.0425 63.015 51.0625 61.5 C51.57683594 61.75910156 52.09117187 62.01820313 52.62109375 62.28515625 C71.85390045 71.85540086 88.82243495 76.65063444 110.45703125 71.9375 C117.44750089 70.76368801 122.85251588 72.14453715 129.4375 74.25 C172.36409607 87.26938498 224.20842254 86.87118576 265.98046875 69.734375 C272.31970426 67.19546699 272.31970426 67.19546699 275.25390625 68.3984375 C287.59258906 76.08216419 298.33636897 85.38077707 307 97.0625 C307.51723633 97.75939941 308.03447266 98.45629883 308.56738281 99.17431641 C324.74974653 121.34324841 332.90185857 145.61027393 336.484375 172.59765625 C336.82307734 176.28057812 336.82307734 176.28057812 338.0625 178.5 C311.20027172 194.73826018 277.91256027 207.07821592 246.0625 206.5 C246.18367188 205.88181396 246.30484375 205.26362793 246.4296875 204.62670898 C251.95493237 176.00434676 251.18657934 149.15748179 236.0625 123.5 C227.81606524 111.35801017 216.11611033 100.77563559 201.3203125 97.7421875 C185.69639333 96.06626537 173.34965785 99.4139819 160.4765625 108.28125 C145.649122 120.55941126 136.4755048 141.3155674 134.25878906 160.17089844 C133.86725589 164.81670253 133.87206017 169.46536314 133.875 174.125 C133.8740332 175.70764648 133.8740332 175.70764648 133.87304688 177.32226562 C133.92623885 185.20918502 134.53380737 192.7473445 136.0625 200.5 C108.70209391 194.13959391 108.70209391 194.13959391 105.0625 190.5 C104.42933381 182.87769209 105.5405647 175.27845263 106.625 167.75 C106.79410889 166.55439453 106.96321777 165.35878906 107.13745117 164.12695312 C108.76352069 153.2967827 111.16675792 142.70689292 113.86352539 132.09863281 C114.16250732 130.90077148 114.46148926 129.70291016 114.76953125 128.46875 C115.0425708 127.41107422 115.31561035 126.35339844 115.59692383 125.26367188 C116.05170446 122.56408259 115.97188926 121.04736025 115.0625 118.5 C110.56950865 119.97079986 109.04099503 123.44794275 106.9375 127.375 C106.59074219 128.00019531 106.24398437 128.62539063 105.88671875 129.26953125 C104.20812994 132.31157151 102.58486745 135.37679255 101.0625 138.5 C67.65357489 137.84021871 37.26212392 120.4745704 14.390625 97.12890625 C12.43785234 94.92384585 11.16043685 93.20015864 10.0625 90.5 C13.0325 89.51 13.0325 89.51 16.0625 88.5 C15.33546875 88.29246094 14.6084375 88.08492188 13.859375 87.87109375 C-7.16460557 81.42913047 -21.08956715 67.71844451 -31.890625 49.140625 C-35.56997658 41.95385415 -37.32591667 35.56488986 -35.9375 27.5 C-34.97665218 24.55564762 -34.28371957 23.72590062 -31.9375 21.5 C-28.8125 20.0625 -28.8125 20.0625 -24.9375 20.5 C-21.16638281 23.10317489 -18.07133502 26.17131513 -14.9375 29.5 C-14.38707031 30.03496094 -13.83664063 30.56992187 -13.26953125 31.12109375 C-12.0625 32.5 -12.0625 32.5 -10.9375 35.5 C-11.849985 38.75274066 -13.25156692 41.5820389 -14.9375 44.5 C-14.2775 44.5 -13.6175 44.5 -12.9375 44.5 C-12.89625 43.84 -12.855 43.18 -12.8125 42.5 C-11.71041197 38.72141246 -9.68390419 36.4958905 -7.1171875 33.5625 C-5.72142055 31.54233623 -5.72142055 31.54233623 -6.0234375 29.05859375 C-7.11746145 25.99626176 -8.59706096 24.0498081 -10.6875 21.5625 C-11.40292969 20.69238281 -12.11835937 19.82226562 -12.85546875 18.92578125 C-14.07821123 17.50116008 -15.32235732 16.0936122 -16.61328125 14.73046875 C-18.97118144 12.21316122 -19.91938712 10.94376562 -20.0625 7.4375 C-18.67122421 3.80472432 -16.91026572 1.97730477 -13.9375 -0.5 C-9.00236881 -2.14504373 -4.75644564 -2.12541961 0 0 Z " fill="#F78F33" transform="translate(79.9375,291.5)"/>
<path d="M0 0 C16.53748936 13.69937238 25.1397526 34.97658549 27.6875 55.875 C28.77292371 70.21644945 28.40725927 85.44057502 23 99 C20.03236204 100.48381898 16.95093318 100.38742234 13.6875 100.5625 C12.91059814 100.6042334 12.13369629 100.6459668 11.33325195 100.68896484 C-70.31500804 104.51634908 -70.31500804 104.51634908 -86.81640625 92.69921875 C-93.93330735 82.48188548 -90.97313598 59.98162074 -89.22827148 48.37695312 C-85.49957058 27.90646247 -75.08778831 8.77020061 -57.875 -3.20703125 C-39.04713288 -14.94886686 -17.59449761 -13.50525658 0 0 Z " fill="#FED9A3" transform="translate(303,399)"/>
<path d="M0 0 C2.52278678 1.89209009 3.3821881 3.15488253 5 6 C5.39799627 9.58196642 4.49220003 11.31625415 2.4140625 14.203125 C-1.8029909 19.23691997 -6.20183714 22.93129146 -12 26 C-11.93070495 29.46475274 -11.80173399 32.0684222 -9.48046875 34.765625 C-4.3731539 39.19554862 -0.43004675 40.38333051 6.30859375 40.265625 C11.96503284 39.70736976 16.21628899 37.91205922 20.1171875 33.73046875 C21.8376309 31.53673068 23.45738292 29.32136589 25 27 C28.875 27.875 28.875 27.875 30 29 C30.79594003 35.50017695 28.68560818 38.96473249 25 44 C24.51418457 44.60730957 24.02836914 45.21461914 23.52783203 45.84033203 C21.98704236 48.01831629 21.09154973 49.95467705 20.16796875 52.44921875 C19.84755615 53.29331299 19.52714355 54.13740723 19.19702148 55.00708008 C18.86387939 55.89161865 18.5307373 56.77615723 18.1875 57.6875 C15.47335378 64.65527955 12.89750875 71.24124956 8 77 C7.45730469 77.639375 6.91460937 78.27875 6.35546875 78.9375 C1.10623563 84.62515665 -5.24518836 88.42781988 -13.04296875 89.203125 C-21.62393127 89.39068702 -27.58217406 87.53422827 -34.1875 81.9375 C-42.51479692 73.87923883 -46.39369258 64.19747144 -50.57836914 53.57519531 C-52.67648921 48.41804944 -54.90934067 44.42149672 -58.74804688 40.36401367 C-60.89527754 38.02458744 -61.01245104 36.82879825 -61.25 33.5625 C-61 30 -61 30 -59.5 28.0625 C-59.005 27.711875 -58.51 27.36125 -58 27 C-54.6277395 28.41796574 -52.92326841 30.07208798 -50.6875 32.9375 C-46.88594492 37.37533231 -43.54462489 39.54094202 -37.6171875 40.30859375 C-31.63032541 40.61068312 -26.86632001 39.60294847 -22 36 C-19.47265803 32.82044075 -18.57090482 29.99633372 -18 26 C-18.73089844 25.73703125 -19.46179688 25.4740625 -20.21484375 25.203125 C-26.74821844 22.38085375 -32.85164793 17.43358902 -36 11 C-36.5625 7.9375 -36.5625 7.9375 -36 5 C-28.28925669 -5.69554717 -10.8954462 -5.30854769 0 0 Z " fill="#030202" transform="translate(287,253)"/>
<path d="M0 0 C2.58353019 1.01226037 2.96267232 1.8296139 4.06640625 4.34765625 C14.3412602 30.50182994 10.86374664 64.68370658 0.56640625 90.37109375 C-0.56687882 92.87591133 -1.73247592 95.34395414 -2.99609375 97.78515625 C-6.57651492 94.51607605 -9.09074933 90.7767548 -11.68359375 86.72265625 C-23.03489082 68.96752762 -23.03489082 68.96752762 -38.99609375 55.78515625 C-38.45039671 50.37715866 -37.11257766 46.03278964 -34.87109375 41.09765625 C-34.55688477 40.39995117 -34.24267578 39.70224609 -33.91894531 38.98339844 C-29.47774162 29.29793623 -13.40461194 -1.44276645 0 0 Z " fill="#FDDAA4" transform="translate(401.99609375,69.21484375)"/>
<path d="M0 0 C5.09797613 0.36955589 7.86671466 3.16611023 11.375 6.5625 C11.95080811 7.11043213 12.52661621 7.65836426 13.11987305 8.22290039 C25.41788502 20.03781962 36.4486879 35.00888809 40.00390625 52.0703125 C40 56 40 56 37.71875 58.94140625 C36.66736295 59.84089693 35.59322587 60.71435176 34.5 61.5625 C33.44619883 62.43673554 32.39413397 63.31306793 31.34375 64.19140625 C30.79879883 64.64161133 30.25384766 65.09181641 29.69238281 65.55566406 C23.60392038 70.75176096 18.84883553 76.60006394 14.25 83.125 C13.68667969 83.91003906 13.12335938 84.69507813 12.54296875 85.50390625 C9.869163 89.25229114 7.28341645 92.99598101 5 97 C0.05959312 92.84719421 -1.2452443 85.9802725 -3 80 C-3.20334961 79.30745117 -3.40669922 78.61490234 -3.61621094 77.90136719 C-7.08250388 65.31684551 -7.41873177 52.6514329 -7.5 39.6875 C-7.51044342 38.8828833 -7.52088684 38.0782666 -7.53164673 37.24926758 C-7.65964774 24.60952966 -7.22618785 10.86900322 0 0 Z " fill="#FEDAA4" transform="translate(139,69)"/>
<path d="M0 0 C6.54661753 3.02151578 10.74426558 8.86066395 13.375 15.4375 C15.12013982 25.38479697 14.10026927 34.80334181 8.35546875 43.27734375 C5.32453828 47.1293332 1.75320263 49.78406444 -3 51 C-9.27049615 50.89886297 -13.57630501 49.56361722 -18 45 C-23.95839122 36.50120942 -24.82109557 28.2220448 -24 18 C-22.30889895 10.21231811 -18.42918299 5.55052562 -12 1 C-8.28085501 -0.85957249 -4.05907472 -0.43221629 0 0 Z " fill="#020100" transform="translate(220,207)"/>
<path d="M0 0 C6.17714229 3.03029622 10.35203388 7.7668796 12.8125 14.125 C15.07583269 21.80739781 15.03821799 30.30148435 12.19140625 37.82421875 C9.66526882 42.43752546 5.77654232 47.61172884 1 50 C-4.25575165 50.5238576 -8.64526095 50.66505372 -13.4375 48.3125 C-19.8122655 42.55966284 -23.08489744 35.97561969 -24.390625 27.44921875 C-24.7972082 18.34465918 -21.62422013 10.07691857 -15.5625 3.33984375 C-10.88249138 -0.67326364 -5.92059204 -0.75062974 0 0 Z " fill="#040201" transform="translate(332,207)"/>
<path d="M0 0 C3.46878736 1.59763145 4.50669836 4.75993217 6.0546875 8.06640625 C6.40128418 8.78957031 6.74788086 9.51273437 7.10498047 10.2578125 C19.04519398 35.62457316 24.44825685 63.23971706 27.1796875 91.00390625 C25.9834375 91.47828125 24.7871875 91.95265625 23.5546875 92.44140625 C22.88179688 92.70824219 22.20890625 92.97507812 21.515625 93.25 C18.76375548 94.13814518 16.0367371 94.58230724 13.1796875 95.00390625 C13.08469971 94.14039551 12.98971191 93.27688477 12.8918457 92.38720703 C9.99832744 66.4468587 5.61500975 41.15030755 -0.58520508 15.78637695 C-0.87548584 14.58327881 -1.1657666 13.38018066 -1.46484375 12.140625 C-1.72628174 11.07545654 -1.98771973 10.01028809 -2.25708008 8.9128418 C-2.78745513 6.17360522 -3.00812252 3.78368139 -2.8203125 1.00390625 C-1.8203125 0.00390625 -1.8203125 0.00390625 0 0 Z " fill="#040200" transform="translate(353.8203125,395.99609375)"/>
<path d="M0 0 C0 4.82417026 -1.0974523 6.23453272 -4 10 C-8.16047359 14.04802836 -12.29722924 15.81689595 -18.1328125 16.10546875 C-24.58320012 15.8020533 -29.14893448 13.14946514 -34 9 C-37.09187722 5.18062226 -37.09187722 5.18062226 -36.84375 1.9921875 C-36 0 -36 0 -34.0234375 -1.265625 C-22.51210142 -5.54417469 -10.99391328 -5.794439 0 0 Z " fill="#F9A08C" transform="translate(290,316)"/>
<path d="M0 0 C2.4375 1.875 2.4375 1.875 3.4375 4.9375 C3.4375 5.906875 3.4375 6.87625 3.4375 7.875 C1.4375 9.875 1.4375 9.875 -1.50390625 9.9296875 C-2.69886719 9.87039062 -3.89382812 9.81109375 -5.125 9.75 C-10.85275261 9.65023382 -14.68236207 10.26720411 -19.72265625 12.9140625 C-21.96190763 14.08360781 -24.04986998 14.63944094 -26.5625 14.875 C-26.8925 14.545 -27.2225 14.215 -27.5625 13.875 C-27.5625 10.43204853 -27.385466 7.8770688 -25.14453125 5.1484375 C-17.86279591 -1.37779771 -9.31192527 -2.94060798 0 0 Z " fill="#060301" transform="translate(225.5625,171.125)"/>
<path d="M0 0 C3.21395197 1.90271658 4.76217942 3.85620295 6.76171875 7.04296875 C7.07421875 10.41796875 7.07421875 10.41796875 6.76171875 13.04296875 C5.13671875 13.79296875 5.13671875 13.79296875 2.76171875 14.04296875 C-0.30078125 12.16796875 -0.30078125 12.16796875 -3.23828125 10.04296875 C-6.82816144 8.84634202 -10.07139494 8.97240326 -13.80078125 9.04296875 C-20.9685623 9.17782822 -20.9685623 9.17782822 -23.23828125 8.04296875 C-23.48828125 5.79296875 -23.48828125 5.79296875 -23.23828125 3.04296875 C-17.59807229 -3.95866996 -7.73816775 -3.34326517 0 0 Z " fill="#050201" transform="translate(337.23828125,171.95703125)"/>
<path d="M0 0 C0.66128906 0.45826172 0.66128906 0.45826172 1.3359375 0.92578125 C12.69588956 8.65141914 24.4749366 16.30392845 37 22 C37 22.33 37 22.66 37 23 C25.71060728 23.67736356 12.70798622 20.909209 3 15 C0.28871409 11.52652857 -0.36198128 9.049532 -0.1875 4.6875 C-0.16042969 3.80449219 -0.13335937 2.92148437 -0.10546875 2.01171875 C-0.07066406 1.34785156 -0.03585938 0.68398438 0 0 Z " fill="#F8F3E9" transform="translate(138,332)"/>
<path d="M0 0 C2 2 2 2 2.375 4.9375 C2 8 2 8 0.3125 9.9375 C-2.61449654 11.28233625 -3.98584989 11.03115662 -7 10 C-9 8 -9 8 -9.375 5.0625 C-9 2 -9 2 -7.3125 0.0625 C-4.38550346 -1.28233625 -3.01415011 -1.03115662 0 0 Z " fill="#FAF6EE" transform="translate(223,219)"/>
<path d="M0 0 C2.9375 0.8125 2.9375 0.8125 4.9375 2.8125 C4.36057692 9.38942308 4.36057692 9.38942308 2.9375 10.8125 C-0.5 11 -0.5 11 -4.0625 10.8125 C-6.0625 8.8125 -6.0625 8.8125 -6.375 5.875 C-6.0625 2.8125 -6.0625 2.8125 -4.9375 0.875 C-3.0625 -0.1875 -3.0625 -0.1875 0 0 Z " fill="#F8F4EE" transform="translate(331.0625,218.1875)"/>
<path d="M0 0 C0.804375 0.4640625 0.804375 0.4640625 1.625 0.9375 C4.03213709 2.14376577 4.03213709 2.14376577 7 2.4375 C10.16082653 3.03015497 11.62340655 3.89762887 14 6 C8.84828377 6.09038099 4.08086796 5.84681133 -1 5 C-1.33 4.01 -1.66 3.02 -2 2 C-1.34 1.34 -0.68 0.68 0 0 Z " fill="#F1ECE2" transform="translate(161,349)"/>
<path d="M0 0 C1.299375 1.1446875 1.299375 1.1446875 2.625 2.3125 C3.635625 2.951875 4.64625 3.59125 5.6875 4.25 C8.6480478 6.3286825 10.51828877 8.39551521 12.625 11.3125 C12.295 11.9725 11.965 12.6325 11.625 13.3125 C11.26148438 12.84199219 10.89796875 12.37148438 10.5234375 11.88671875 C6.03552558 6.32861245 1.85363938 3.3755352 -5.375 2.3125 C-5.705 1.3225 -6.035 0.3325 -6.375 -0.6875 C-3.41154023 -2.00459323 -2.70700491 -1.92339823 0 0 Z " fill="#F8ECBD" transform="translate(120.375,284.6875)"/>
<path d="M0 0 C1.32 0.33 2.64 0.66 4 1 C1.68462045 4.72114571 -0.28579473 7.61229661 -4 10 C-4.33 9.01 -4.66 8.02 -5 7 C-4.0409375 6.6596875 -4.0409375 6.6596875 -3.0625 6.3125 C-0.72806339 5.14749104 -0.72806339 5.14749104 -0.25 2.375 C-0.1675 1.59125 -0.085 0.8075 0 0 Z " fill="#FCE9BA" transform="translate(431,261)"/>
<path d="M0 0 C1.32 0 2.64 0 4 0 C4.226875 0.721875 4.45375 1.44375 4.6875 2.1875 C6.24831013 5.53209313 8.3031287 7.51603959 11 10 C10.67 10.66 10.34 11.32 10 12 C8.70212134 10.75645114 7.41193241 9.5048736 6.125 8.25 C5.40570313 7.55390625 4.68640625 6.8578125 3.9453125 6.140625 C2.13520321 4.14877783 1.05151914 2.4572342 0 0 Z " fill="#F6A540" transform="translate(90,382)"/>
<path d="M0 0 C0.33 1.32 0.66 2.64 1 4 C-0.75 5.5625 -0.75 5.5625 -3 7 C-5.25 6.6875 -5.25 6.6875 -7 6 C-7 5.67 -7 5.34 -7 5 C-5.35 5 -3.7 5 -2 5 C-1.855625 4.360625 -1.71125 3.72125 -1.5625 3.0625 C-1 1 -1 1 0 0 Z " fill="#EAE7E2" transform="translate(224,223)"/>
<path d="M0 0 C0.33 0.99 0.66 1.98 1 3 C0.34 3 -0.32 3 -1 3 C-1.33 4.32 -1.66 5.64 -2 7 C-2.99 5.68 -3.98 4.36 -5 3 C-3.35 2.01 -1.7 1.02 0 0 Z " fill="#EDE9E1" transform="translate(374,350)"/>
<path d="M0 0 C0.99 0.33 1.98 0.66 3 1 C1 3 1 3 -1 4 C-0.67 5.32 -0.34 6.64 0 8 C-1.5625 6.75 -1.5625 6.75 -3 5 C-2.8125 2.875 -2.8125 2.875 -2 1 C-1.34 0.67 -0.68 0.34 0 0 Z " fill="#EDAC97" transform="translate(256,315)"/>
<path d="M0 0 C0.66 0.33 1.32 0.66 2 1 C1.67 2.32 1.34 3.64 1 5 C0.34 5 -0.32 5 -1 5 C-1.33 6.65 -1.66 8.3 -2 10 C-3.39195915 5.82412255 -1.82323219 3.86525224 0 0 Z " fill="#F49E3A" transform="translate(133,223)"/>
<path d="M0 0 C2 1 2 1 3.1875 3.3125 C4.03624754 6.11989571 3.99928333 7.301935 3 10 C0.59185923 6.48812804 -0.36629408 4.27343092 0 0 Z " fill="#F6882A" transform="translate(138,157)"/>
<path d="M0 0 C2.29633824 3.44450737 2.54016485 5.93812283 3 10 C1.68 9.34 0.36 8.68 -1 8 C-0.34 8 0.32 8 1 8 C0.67 7.34 0.34 6.68 0 6 C-0.039992 4.00039988 -0.04346799 1.99952758 0 0 Z " fill="#F68321" transform="translate(213,482)"/>
<path d="M0 0 C0.66 0 1.32 0 2 0 C1.67 2.97 1.34 5.94 1 9 C-1 7 -1 7 -1.1875 3.9375 C-1 1 -1 1 0 0 Z " fill="#EBE7E2" transform="translate(174,443)"/>
</svg>
